<svg id="visual" viewBox="0 0 900 600" width="900" height="600" xmlns="http://www.w3.org/2000/svg" xmlns:xlink="http://www.w3.org/1999/xlink" version="1.1"><rect x="0" y="0" width="900" height="600" fill="#32361D"></rect><g transform="translate(-10.501433844229307 16.143096214615618)"><path d="M63 -103.6C76 -101.6 77 -73.3 78.1 -51.7C79.3 -30 80.6 -15 82.5 1.1C84.4 17.2 86.8 34.3 80.9 47.8C75 61.2 60.7 70.9 45.9 71.4C31 72 15.5 63.5 2.2 59.8C-11.2 56 -22.3 57 -22.3 47.8C-22.3 38.7 -11.2 19.3 -20.9 9.7C-30.7 0 -61.3 0 -63.5 -1.2C-65.7 -2.5 -39.3 -5 -30.5 -16.3C-21.7 -27.5 -30.3 -47.5 -28.2 -55.8C-26 -64 -13 -60.5 6 -70.9C25 -81.3 50 -105.6 63 -103.6" fill="#EDEEE8"></path></g></svg>